<svg width="800" height="240" viewBox="0 0 800 240" xmlns="http://www.w3.org/2000/svg" preserveAspectRatio="xMidYMid slice">
  <defs>
    <linearGradient id="bg" x1="0%" y1="0%" x2="100%" y2="100%">
      <stop offset="0%" stop-color="#ECFDF5"/>
      <stop offset="100%" stop-color="#D1FAE5"/>
    </linearGradient>
    <linearGradient id="desk" x1="0%" y1="0%" x2="0%" y2="100%">
      <stop offset="0%" stop-color="#D97706"/>
      <stop offset="100%" stop-color="#92400E"/>
    </linearGradient>
  </defs>
  <!-- Background -->
  <rect width="800" height="240" fill="url(#bg)"/>
  <!-- Back wall -->
  <rect width="800" height="185" fill="#F0FDF4"/>
  <!-- Floor -->
  <rect x="0" y="200" width="800" height="40" fill="#E5E7EB"/>
  <!-- Bookshelf left -->
  <rect x="20" y="20" width="110" height="175" rx="5" fill="#D97706" opacity="0.7"/>
  <rect x="25" y="25" width="100" height="8" rx="3" fill="#92400E" opacity="0.5"/>
  <rect x="25" y="75" width="100" height="8" rx="3" fill="#92400E" opacity="0.5"/>
  <rect x="25" y="125" width="100" height="8" rx="3" fill="#92400E" opacity="0.5"/>
  <rect x="25" y="175" width="100" height="8" rx="3" fill="#92400E" opacity="0.5"/>
  <!-- Books shelf 1 -->
  <rect x="28" y="33" width="14" height="40" rx="2" fill="#3B82F6"/>
  <rect x="44" y="36" width="12" height="37" rx="2" fill="#EF4444"/>
  <rect x="58" y="30" width="16" height="43" rx="2" fill="#8B5CF6"/>
  <rect x="76" y="34" width="12" height="39" rx="2" fill="#F59E0B"/>
  <rect x="90" y="31" width="14" height="42" rx="2" fill="#10B981"/>
  <rect x="106" y="36" width="15" height="37" rx="2" fill="#EC4899"/>
  <!-- Books shelf 2 -->
  <rect x="28" y="83" width="16" height="40" rx="2" fill="#F97316"/>
  <rect x="46" y="80" width="12" height="43" rx="2" fill="#6366F1"/>
  <rect x="60" y="85" width="14" height="38" rx="2" fill="#06B6D4"/>
  <rect x="76" y="83" width="16" height="40" rx="2" fill="#84CC16"/>
  <rect x="94" y="80" width="12" height="43" rx="2" fill="#F59E0B"/>
  <rect x="108" y="84" width="14" height="39" rx="2" fill="#EF4444"/>
  <!-- Books shelf 3 -->
  <rect x="28" y="133" width="14" height="40" rx="2" fill="#10B981"/>
  <rect x="44" y="130" width="16" height="43" rx="2" fill="#8B5CF6"/>
  <rect x="62" y="134" width="12" height="39" rx="2" fill="#3B82F6"/>
  <rect x="76" y="131" width="14" height="42" rx="2" fill="#EC4899"/>
  <rect x="92" y="133" width="16" height="40" rx="2" fill="#F97316"/>
  <rect x="110" y="130" width="12" height="43" rx="2" fill="#06B6D4"/>
  <!-- Plant on shelf -->
  <rect x="55" y="170" width="14" height="10" rx="3" fill="#92400E"/>
  <ellipse cx="62" cy="165" rx="14" ry="12" fill="#22C55E"/>
  <ellipse cx="54" cy="170" rx="10" ry="9" fill="#16A34A"/>
  <ellipse cx="70" cy="169" rx="9" ry="8" fill="#22C55E"/>
  <!-- Desk -->
  <rect x="140" y="155" width="480" height="20" rx="8" fill="url(#desk)"/>
  <rect x="142" y="148" width="476" height="12" rx="6" fill="#A16207"/>
  <!-- Desk legs -->
  <rect x="155" y="174" width="12" height="30" rx="5" fill="#92400E"/>
  <rect x="598" y="174" width="12" height="30" rx="5" fill="#92400E"/>
  <!-- Laptop on desk -->
  <rect x="270" y="105" width="180" height="115" rx="10" fill="#1F2937"/>
  <rect x="275" y="110" width="170" height="100" rx="7" fill="#111827"/>
  <!-- Laptop screen content -->
  <rect x="280" y="115" width="160" height="90" rx="5" fill="#1E3A5F"/>
  <!-- Graph on screen -->
  <polyline points="290,195 310,175 335,180 360,158 385,165 415,145 430,150" stroke="#34D399" stroke-width="2.5" fill="none" stroke-linejoin="round"/>
  <polyline points="290,200 310,192 335,196 360,185 385,188 415,175 430,178" stroke="#60A5FA" stroke-width="2" fill="none" stroke-linejoin="round" opacity="0.7"/>
  <!-- Screen code lines -->
  <rect x="287" y="120" width="80" height="5" rx="2" fill="#34D399" opacity="0.7"/>
  <rect x="287" y="128" width="60" height="5" rx="2" fill="#60A5FA" opacity="0.6"/>
  <rect x="287" y="136" width="100" height="5" rx="2" fill="#F472B6" opacity="0.5"/>
  <rect x="287" y="144" width="70" height="5" rx="2" fill="#FBBF24" opacity="0.6"/>
  <!-- Laptop hinge / base -->
  <rect x="250" y="200" width="220" height="10" rx="5" fill="#374151"/>
  <rect x="280" y="198" width="160" height="6" rx="3" fill="#4B5563"/>
  <!-- Laptop camera dot -->
  <circle cx="360" cy="113" r="2.5" fill="#374151"/>
  <!-- Woman at desk (black woman with natural hair) -->
  <!-- Chair -->
  <rect x="310" y="185" width="80" height="18" rx="6" fill="#374151"/>
  <!-- Chair back -->
  <rect x="330" y="165" width="12" height="22" rx="4" fill="#374151"/>
  <rect x="358" y="165" width="12" height="22" rx="4" fill="#374151"/>
  <!-- Body / blouse -->
  <rect x="312" y="130" width="56" height="58" rx="10" fill="#2563EB"/>
  <!-- Head -->
  <circle cx="340" cy="112" r="26" fill="#7C2D12"/>
  <!-- Natural hair (afro) -->
  <circle cx="340" cy="92" r="28" fill="#1C1917"/>
  <circle cx="320" cy="100" r="16" fill="#1C1917"/>
  <circle cx="360" cy="100" r="16" fill="#1C1917"/>
  <circle cx="328" cy="88" r="14" fill="#1C1917"/>
  <circle cx="352" cy="88" r="14" fill="#1C1917"/>
  <!-- Facial features -->
  <circle cx="330" cy="110" r="3.5" fill="white"/>
  <circle cx="350" cy="110" r="3.5" fill="white"/>
  <circle cx="331" cy="111" r="2" fill="#1C1917"/>
  <circle cx="351" cy="111" r="2" fill="#1C1917"/>
  <path d="M 332 120 Q 340 126 348 120" stroke="#1C1917" stroke-width="1.8" fill="none" stroke-linecap="round"/>
  <!-- Earrings -->
  <circle cx="314" cy="114" r="4" fill="#FCD34D"/>
  <circle cx="366" cy="114" r="4" fill="#FCD34D"/>
  <!-- Arms on keyboard -->
  <line x1="312" y1="148" x2="275" y2="168" stroke="#7C2D12" stroke-width="12" stroke-linecap="round"/>
  <line x1="368" y1="148" x2="405" y2="168" stroke="#7C2D12" stroke-width="12" stroke-linecap="round"/>
  <!-- Hands on keyboard -->
  <ellipse cx="270" cy="172" rx="14" ry="8" fill="#7C2D12"/>
  <ellipse cx="410" cy="172" rx="14" ry="8" fill="#7C2D12"/>
  <!-- Floating design elements around woman -->
  <!-- Color palette circles -->
  <circle cx="200" cy="80" r="18" fill="#EF4444" opacity="0.8"/>
  <circle cx="215" cy="80" r="18" fill="#3B82F6" opacity="0.8"/>
  <circle cx="207" cy="94" r="18" fill="#FCD34D" opacity="0.8"/>
  <!-- Light bulb idea -->
  <circle cx="510" cy="70" r="20" fill="#FDE68A" opacity="0.85"/>
  <path d="M 503 80 Q 510 90 517 80" fill="#F59E0B" opacity="0.9"/>
  <line x1="510" y1="93" x2="510" y2="100" stroke="#F59E0B" stroke-width="3"/>
  <line x1="505" y1="47" x2="510" y2="55" stroke="#F59E0B" stroke-width="2.5"/>
  <line x1="515" y1="47" x2="510" y2="55" stroke="#F59E0B" stroke-width="2.5"/>
  <line x1="492" y1="58" x2="498" y2="65" stroke="#F59E0B" stroke-width="2.5"/>
  <line x1="528" y1="58" x2="522" y2="65" stroke="#F59E0B" stroke-width="2.5"/>
  <!-- Chart bar graph floating -->
  <rect x="590" y="60" width="16" height="45" rx="3" fill="#3B82F6" opacity="0.75"/>
  <rect x="610" y="50" width="16" height="55" rx="3" fill="#10B981" opacity="0.75"/>
  <rect x="630" y="70" width="16" height="35" rx="3" fill="#F59E0B" opacity="0.75"/>
  <rect x="650" y="45" width="16" height="60" rx="3" fill="#EF4444" opacity="0.75"/>
  <!-- Gear / cog floating -->
  <circle cx="690" cy="120" r="18" fill="none" stroke="#6366F1" stroke-width="4" opacity="0.7"/>
  <circle cx="690" cy="120" r="10" fill="none" stroke="#6366F1" stroke-width="3" opacity="0.7"/>
  <line x1="690" y1="98" x2="690" y2="142" stroke="#6366F1" stroke-width="4" opacity="0.5"/>
  <line x1="668" y1="120" x2="712" y2="120" stroke="#6366F1" stroke-width="4" opacity="0.5"/>
  <line x1="675" y1="105" x2="705" y2="135" stroke="#6366F1" stroke-width="4" opacity="0.5"/>
  <line x1="705" y1="105" x2="675" y2="135" stroke="#6366F1" stroke-width="4" opacity="0.5"/>
  <!-- Stars sparkle -->
  <text x="160" y="50" font-size="18" fill="#FCD34D" opacity="0.8">✦</text>
  <text x="740" y="75" font-size="14" fill="#F472B6" opacity="0.7">✦</text>
  <text x="570" y="130" font-size="12" fill="#34D399" opacity="0.7">✦</text>
</svg>
