<svg width="800" height="240" viewBox="0 0 800 240" xmlns="http://www.w3.org/2000/svg" preserveAspectRatio="xMidYMid slice">
  <defs>
    <linearGradient id="wall" x1="0%" y1="0%" x2="0%" y2="100%">
      <stop offset="0%" stop-color="#FEF3C7"/>
      <stop offset="100%" stop-color="#FDE68A"/>
    </linearGradient>
    <linearGradient id="floor" x1="0%" y1="0%" x2="0%" y2="100%">
      <stop offset="0%" stop-color="#D97706"/>
      <stop offset="100%" stop-color="#B45309"/>
    </linearGradient>
  </defs>
  <!-- Wall background -->
  <rect width="800" height="240" fill="url(#wall)"/>
  <!-- Floor -->
  <rect x="0" y="195" width="800" height="45" fill="url(#floor)"/>
  <!-- Floor shadow line -->
  <rect x="0" y="193" width="800" height="5" fill="#92400E" opacity="0.3"/>
  <!-- Window left -->
  <rect x="30" y="30" width="90" height="110" rx="6" fill="#BAE6FD"/>
  <rect x="30" y="30" width="90" height="110" rx="6" fill="none" stroke="#92400E" stroke-width="4"/>
  <line x1="75" y1="30" x2="75" y2="140" stroke="#92400E" stroke-width="3"/>
  <line x1="30" y1="85" x2="120" y2="85" stroke="#92400E" stroke-width="3"/>
  <!-- Curtain left -->
  <path d="M 30 30 Q 42 60 36 95 Q 30 130 38 140" fill="#EF4444" opacity="0.7"/>
  <path d="M 120 30 Q 108 60 114 95 Q 120 130 112 140" fill="#EF4444" opacity="0.7"/>
  <!-- Window sill plant -->
  <rect x="55" y="136" width="20" height="12" rx="3" fill="#78350F"/>
  <ellipse cx="55" cy="132" rx="10" ry="12" fill="#22C55E"/>
  <ellipse cx="65" cy="130" rx="9" ry="11" fill="#16A34A"/>
  <ellipse cx="75" cy="132" rx="8" ry="10" fill="#22C55E"/>
  <!-- Picture frame on wall -->
  <rect x="155" y="25" width="70" height="55" rx="4" fill="#FDBA74"/>
  <rect x="155" y="25" width="70" height="55" rx="4" fill="none" stroke="#92400E" stroke-width="3"/>
  <ellipse cx="190" cy="52" rx="22" ry="18" fill="#FDE68A"/>
  <!-- Table -->
  <rect x="180" y="155" width="440" height="18" rx="8" fill="#92400E"/>
  <rect x="185" y="150" width="430" height="12" rx="6" fill="#A16207"/>
  <!-- Table legs -->
  <rect x="200" y="172" width="14" height="30" rx="5" fill="#92400E"/>
  <rect x="586" y="172" width="14" height="30" rx="5" fill="#92400E"/>
  <!-- Food on table -->
  <!-- Bowl of food center -->
  <ellipse cx="400" cy="152" rx="45" ry="14" fill="#FBBF24"/>
  <ellipse cx="400" cy="148" rx="40" ry="12" fill="#FCD34D"/>
  <ellipse cx="400" cy="146" rx="35" ry="10" fill="#F59E0B"/>
  <!-- Chicken/roast on plate -->
  <ellipse cx="400" cy="145" rx="30" ry="8" fill="#D97706"/>
  <ellipse cx="400" cy="143" rx="24" ry="6" fill="#B45309"/>
  <!-- Bread basket left of center -->
  <ellipse cx="300" cy="154" rx="28" ry="9" fill="#D97706"/>
  <ellipse cx="300" cy="150" rx="24" ry="8" fill="#FBBF24"/>
  <!-- Bread pieces -->
  <ellipse cx="294" cy="148" rx="10" ry="7" fill="#FDE68A"/>
  <ellipse cx="308" cy="148" rx="10" ry="7" fill="#FEF3C7"/>
  <!-- Salad bowl right -->
  <ellipse cx="510" cy="154" rx="28" ry="9" fill="#D1FAE5"/>
  <ellipse cx="510" cy="150" rx="24" ry="8" fill="#6EE7B7"/>
  <!-- Glasses -->
  <rect x="235" y="140" width="10" height="18" rx="5" fill="#BAE6FD" opacity="0.8"/>
  <rect x="555" y="140" width="10" height="18" rx="5" fill="#FECACA" opacity="0.8"/>
  <!-- Candles center -->
  <rect x="435" y="130" width="7" height="22" rx="3" fill="#FEF3C7"/>
  <ellipse cx="438" cy="129" rx="4" ry="5" fill="#FCD34D"/>
  <circle cx="438" cy="127" r="2" fill="#F97316"/>
  <rect x="455" y="133" width="7" height="20" rx="3" fill="#FCE7F3"/>
  <ellipse cx="458" cy="132" rx="4" ry="5" fill="#FCD34D"/>
  <circle cx="458" cy="130" r="2" fill="#F97316"/>
  <!-- Father (left, beard) -->
  <rect x="195" y="108" width="34" height="50" rx="8" fill="#4B5563"/>
  <circle cx="212" cy="95" r="22" fill="#D97706"/>
  <!-- Beard -->
  <path d="M 195 102 Q 212 118 229 102" fill="#78350F"/>
  <circle cx="205" cy="94" r="3" fill="white"/>
  <circle cx="219" cy="94" r="3" fill="white"/>
  <circle cx="205.5" cy="94.5" r="1.8" fill="#1C1917"/>
  <circle cx="219.5" cy="94.5" r="1.8" fill="#1C1917"/>
  <!-- Father arm on table -->
  <line x1="195" y1="120" x2="185" y2="150" stroke="#D97706" stroke-width="10" stroke-linecap="round"/>
  <line x1="229" y1="120" x2="240" y2="148" stroke="#D97706" stroke-width="10" stroke-linecap="round"/>
  <!-- Mother (right of father) -->
  <rect x="320" y="110" width="32" height="48" rx="8" fill="#EC4899"/>
  <circle cx="336" cy="97" r="21" fill="#FBBF24"/>
  <!-- Long hair -->
  <ellipse cx="336" cy="84" rx="21" ry="11" fill="#92400E"/>
  <rect x="315" y="86" width="8" height="30" rx="4" fill="#92400E"/>
  <rect x="349" y="86" width="8" height="30" rx="4" fill="#92400E"/>
  <circle cx="325" cy="96" r="2.5" fill="white"/>
  <circle cx="347" cy="96" r="2.5" fill="white"/>
  <circle cx="325.5" cy="96.5" r="1.5" fill="#1C1917"/>
  <circle cx="347.5" cy="96.5" r="1.5" fill="#1C1917"/>
  <!-- Mother arms -->
  <line x1="320" y1="123" x2="310" y2="150" stroke="#FBBF24" stroke-width="9" stroke-linecap="round"/>
  <line x1="352" y1="123" x2="362" y2="150" stroke="#FBBF24" stroke-width="9" stroke-linecap="round"/>
  <!-- Child 1 (center-right, smaller) -->
  <rect x="448" y="120" width="26" height="38" rx="7" fill="#60A5FA"/>
  <circle cx="461" cy="108" r="18" fill="#FBBF24"/>
  <ellipse cx="461" cy="95" rx="18" ry="9" fill="#78350F"/>
  <circle cx="453" cy="107" r="2.5" fill="white"/>
  <circle cx="469" cy="107" r="2.5" fill="white"/>
  <circle cx="453.5" cy="107.5" r="1.5" fill="#1C1917"/>
  <circle cx="469.5" cy="107.5" r="1.5" fill="#1C1917"/>
  <!-- Smile child 1 -->
  <path d="M 454 114 Q 461 120 468 114" stroke="#1C1917" stroke-width="1.5" fill="none" stroke-linecap="round"/>
  <line x1="448" y1="130" x2="436" y2="150" stroke="#FBBF24" stroke-width="8" stroke-linecap="round"/>
  <line x1="474" y1="130" x2="484" y2="150" stroke="#FBBF24" stroke-width="8" stroke-linecap="round"/>
  <!-- Child 2 (far right, smallest) -->
  <rect x="570" y="125" width="24" height="35" rx="7" fill="#F97316"/>
  <circle cx="582" cy="113" r="17" fill="#D97706"/>
  <ellipse cx="582" cy="101" rx="17" ry="8" fill="#92400E"/>
  <!-- pigtails -->
  <circle cx="567" cy="106" r="8" fill="#78350F"/>
  <circle cx="597" cy="106" r="8" fill="#78350F"/>
  <circle cx="574" cy="112" r="2" fill="white"/>
  <circle cx="590" cy="112" r="2" fill="white"/>
  <circle cx="574.5" cy="112.5" r="1.2" fill="#1C1917"/>
  <circle cx="590.5" cy="112.5" r="1.2" fill="#1C1917"/>
  <path d="M 575 119 Q 582 124 589 119" stroke="#1C1917" stroke-width="1.5" fill="none" stroke-linecap="round"/>
  <line x1="570" y1="136" x2="560" y2="152" stroke="#D97706" stroke-width="8" stroke-linecap="round"/>
  <line x1="594" y1="136" x2="604" y2="152" stroke="#D97706" stroke-width="8" stroke-linecap="round"/>
  <!-- Dog under table (right) -->
  <!-- Dog body -->
  <ellipse cx="660" cy="202" rx="35" ry="18" fill="#D97706"/>
  <!-- Dog head -->
  <circle cx="688" cy="192" r="18" fill="#FBBF24"/>
  <!-- Dog ears -->
  <ellipse cx="676" cy="182" rx="9" ry="14" fill="#D97706" transform="rotate(-20 676 182)"/>
  <ellipse cx="700" cy="182" rx="9" ry="14" fill="#D97706" transform="rotate(20 700 182)"/>
  <!-- Dog eyes -->
  <circle cx="683" cy="190" r="3" fill="#1C1917"/>
  <circle cx="695" cy="190" r="3" fill="#1C1917"/>
  <circle cx="684" cy="189" r="1.2" fill="white"/>
  <circle cx="696" cy="189" r="1.2" fill="white"/>
  <!-- Dog nose -->
  <ellipse cx="689" cy="197" rx="5" ry="3" fill="#1C1917"/>
  <!-- Dog tongue -->
  <path d="M 686 200 Q 689 207 692 200" fill="#EF4444"/>
  <!-- Dog tail wagging -->
  <path d="M 625 198 Q 615 182 620 170" stroke="#D97706" stroke-width="8" fill="none" stroke-linecap="round"/>
  <!-- Dog legs -->
  <rect x="638" y="215" width="9" height="18" rx="4" fill="#D97706"/>
  <rect x="653" y="215" width="9" height="18" rx="4" fill="#D97706"/>
  <!-- Chandelier above -->
  <line x1="400" y1="0" x2="400" y2="30" stroke="#92400E" stroke-width="4"/>
  <ellipse cx="400" cy="33" rx="45" ry="10" fill="#D97706"/>
  <line x1="370" y1="35" x2="365" y2="55" stroke="#92400E" stroke-width="2"/>
  <line x1="400" y1="38" x2="400" y2="58" stroke="#92400E" stroke-width="2"/>
  <line x1="430" y1="35" x2="435" y2="55" stroke="#92400E" stroke-width="2"/>
  <circle cx="365" cy="57" r="5" fill="#FDE68A"/>
  <circle cx="400" cy="60" r="5" fill="#FDE68A"/>
  <circle cx="435" cy="57" r="5" fill="#FDE68A"/>
</svg>
