<svg width="200" height="200" viewBox="0 0 200 200" xmlns="http://www.w3.org/2000/svg">
  <defs>
    <radialGradient id="bg" cx="50%" cy="50%" r="50%">
      <stop offset="0%" stop-color="#FFF7ED"/>
      <stop offset="100%" stop-color="#FDBA74"/>
    </radialGradient>
  </defs>
  <circle cx="100" cy="100" r="100" fill="url(#bg)"/>
  <!-- Ground shadow -->
  <ellipse cx="100" cy="172" rx="68" ry="8" fill="#FCA35A" opacity="0.3"/>
  <!-- Father (left, tallest) -->
  <rect x="30" y="110" width="28" height="50" rx="7" fill="#4B5563"/>
  <circle cx="44" cy="97" r="18" fill="#D97706"/>
  <ellipse cx="44" cy="110" rx="13" ry="7" fill="#78350F"/>
  <rect x="31" y="156" width="11" height="20" rx="5" fill="#374151"/>
  <rect x="46" y="156" width="11" height="20" rx="5" fill="#374151"/>
  <!-- Mother (center) -->
  <path d="M 86 118 Q 90 138 84 160 L 110 160 Q 104 138 108 118 Z" fill="#EC4899"/>
  <rect x="87" y="108" width="24" height="18" rx="7" fill="#EC4899"/>
  <circle cx="99" cy="95" r="17" fill="#FBBF24"/>
  <ellipse cx="99" cy="83" rx="17" ry="9" fill="#92400E"/>
  <rect x="81" y="86" width="7" height="22" rx="4" fill="#92400E"/>
  <rect x="108" y="86" width="7" height="22" rx="4" fill="#92400E"/>
  <!-- Child (right, smallest) -->
  <rect x="125" y="130" width="22" height="32" rx="6" fill="#60A5FA"/>
  <circle cx="136" cy="118" r="14" fill="#FBBF24"/>
  <ellipse cx="136" cy="108" rx="14" ry="7" fill="#78350F"/>
  <rect x="125" y="158" width="9" height="16" rx="4" fill="#1E40AF"/>
  <rect x="138" y="158" width="9" height="16" rx="4" fill="#1E40AF"/>
  <!-- Arms holding -->
  <line x1="30" y1="122" x2="18" y2="142" stroke="#D97706" stroke-width="7" stroke-linecap="round"/>
  <line x1="58" y1="122" x2="86" y2="130" stroke="#D97706" stroke-width="7" stroke-linecap="round"/>
  <line x1="87" y1="122" x2="57" y2="130" stroke="#FBBF24" stroke-width="6" stroke-linecap="round"/>
  <line x1="110" y1="122" x2="125" y2="132" stroke="#FBBF24" stroke-width="6" stroke-linecap="round"/>
  <line x1="125" y1="134" x2="109" y2="130" stroke="#FBBF24" stroke-width="5" stroke-linecap="round"/>
  <line x1="147" y1="134" x2="162" y2="144" stroke="#FBBF24" stroke-width="5" stroke-linecap="round"/>
  <!-- Heart -->
  <path d="M 100 55 C 100 52 96 48 92 51 C 88 54 88 59 92 63 L 100 71 L 108 63 C 112 59 112 54 108 51 C 104 48 100 52 100 55 Z" fill="#EF4444" opacity="0.75"/>
</svg>
