<svg width="800" height="240" viewBox="0 0 800 240" xmlns="http://www.w3.org/2000/svg" preserveAspectRatio="xMidYMid slice">
  <defs>
    <linearGradient id="bg" x1="0%" y1="0%" x2="100%" y2="100%">
      <stop offset="0%" stop-color="#FEF3C7"/>
      <stop offset="100%" stop-color="#FDE68A"/>
    </linearGradient>
    <linearGradient id="album" x1="0%" y1="0%" x2="100%" y2="100%">
      <stop offset="0%" stop-color="#92400E"/>
      <stop offset="100%" stop-color="#78350F"/>
    </linearGradient>
  </defs>
  <!-- Background -->
  <rect width="800" height="240" fill="url(#bg)"/>
  <!-- Surface / table -->
  <rect x="0" y="180" width="800" height="60" fill="#D97706" opacity="0.4"/>
  <!-- Open photo album center -->
  <!-- Album spine -->
  <rect x="330" y="30" width="18" height="190" rx="4" fill="url(#album)"/>
  <!-- Album left page -->
  <rect x="110" y="30" width="222" height="190" rx="8" fill="#FEF9EE"/>
  <rect x="110" y="30" width="222" height="190" rx="8" fill="none" stroke="#D97706" stroke-width="2" opacity="0.5"/>
  <!-- Album right page -->
  <rect x="348" y="30" width="222" height="190" rx="8" fill="#FEF9EE"/>
  <rect x="348" y="30" width="222" height="190" rx="8" fill="none" stroke="#D97706" stroke-width="2" opacity="0.5"/>
  <!-- Page corners -->
  <path d="M 320 210 L 332 210 L 332 198" fill="#E5E7EB" opacity="0.4"/>
  <path d="M 348 210 L 336 210 L 336 198" fill="#E5E7EB" opacity="0.4"/>
  <!-- Photos on left page -->
  <!-- Photo 1 (mountain/landscape) -->
  <rect x="125" y="45" width="88" height="65" rx="4" fill="#BAE6FD"/>
  <rect x="125" y="45" width="88" height="65" rx="4" fill="none" stroke="#93C5FD" stroke-width="1.5"/>
  <!-- Mountain in photo -->
  <polygon points="148,102 169,65 190,102" fill="#4B5563"/>
  <polygon points="162,102 178,75 196,102" fill="#6B7280"/>
  <polygon points="148,102 125,102 125,88" fill="#86EFAC"/>
  <polygon points="213,102 196,102 196,80" fill="#86EFAC"/>
  <!-- Snow cap -->
  <polygon points="169,65 163,80 175,80" fill="white"/>
  <!-- Sky blue in photo -->
  <rect x="125" y="45" width="88" height="35" rx="4" fill="#7DD3FC"/>
  <polygon points="148,102 169,65 190,102" fill="#4B5563"/>
  <polygon points="162,102 178,75 196,102" fill="#6B7280"/>
  <polygon points="169,65 163,78 175,78" fill="white"/>
  <!-- Photo caption -->
  <rect x="125" y="114" width="88" height="6" rx="3" fill="#D1D5DB"/>
  <rect x="135" y="123" width="65" height="4" rx="2" fill="#E5E7EB"/>
  <!-- Photo 2 (beach/ocean) -->
  <rect x="125" y="138" width="88" height="65" rx="4" fill="#0EA5E9"/>
  <rect x="125" y="138" width="88" height="65" rx="4" fill="none" stroke="#38BDF8" stroke-width="1.5"/>
  <!-- Sky in photo 2 -->
  <rect x="125" y="138" width="88" height="32" rx="4" fill="#7DD3FC"/>
  <!-- Sand -->
  <rect x="125" y="175" width="88" height="28" rx="4" fill="#FDE68A"/>
  <!-- Ocean waves -->
  <path d="M 125 170 Q 145 165 165 170 Q 185 175 213 170 L 213 175 L 125 175 Z" fill="#0EA5E9"/>
  <!-- Sun in photo2 -->
  <circle cx="195" cy="150" r="8" fill="#FCD34D"/>
  <!-- Palm silhouette -->
  <rect x="133" y="152" width="4" height="22" rx="2" fill="#78350F"/>
  <path d="M 132 155 Q 120 148 115 140" stroke="#22C55E" stroke-width="4" fill="none" stroke-linecap="round"/>
  <path d="M 136 153 Q 148 145 152 136" stroke="#22C55E" stroke-width="4" fill="none" stroke-linecap="round"/>
  <!-- Photo caption 2 -->
  <rect x="125" y="207" width="88" height="5" rx="2.5" fill="#D1D5DB"/>
  <!-- Photo 3 (city / small square) -->
  <rect x="225" y="45" width="80" height="60" rx="4" fill="#E0E7FF"/>
  <rect x="225" y="45" width="80" height="60" rx="4" fill="none" stroke="#A5B4FC" stroke-width="1.5"/>
  <!-- City skyline silhouette -->
  <rect x="232" y="75" width="12" height="22" rx="2" fill="#6366F1"/>
  <rect x="246" y="65" width="14" height="32" rx="2" fill="#818CF8"/>
  <rect x="262" y="80" width="10" height="17" rx="2" fill="#6366F1"/>
  <rect x="274" y="70" width="14" height="27" rx="2" fill="#4F46E5"/>
  <rect x="290" y="76" width="11" height="21" rx="2" fill="#818CF8"/>
  <!-- Sky city -->
  <rect x="225" y="45" width="80" height="30" rx="4" fill="#C7D2FE"/>
  <!-- Caption 3 -->
  <rect x="225" y="110" width="80" height="5" rx="2.5" fill="#D1D5DB"/>
  <rect x="235" y="118" width="55" height="4" rx="2" fill="#E5E7EB"/>
  <!-- Sticker / stamp on left page -->
  <circle cx="255" cy="155" r="22" fill="#FDE68A" stroke="#F59E0B" stroke-width="2"/>
  <circle cx="255" cy="155" r="17" fill="none" stroke="#F59E0B" stroke-width="1" stroke-dasharray="3,2"/>
  <text x="255" y="152" text-anchor="middle" font-size="10" fill="#92400E" font-weight="bold" font-family="sans-serif">2023</text>
  <text x="255" y="163" text-anchor="middle" font-size="7" fill="#B45309" font-family="sans-serif">MEMORIES</text>
  <!-- Photos on right page -->
  <!-- Photo 4 (forest/nature) -->
  <rect x="363" y="45" width="88" height="65" rx="4" fill="#D1FAE5"/>
  <rect x="363" y="45" width="88" height="65" rx="4" fill="none" stroke="#6EE7B7" stroke-width="1.5"/>
  <!-- Trees in photo -->
  <rect x="363" y="45" width="88" height="40" rx="4" fill="#A7F3D0"/>
  <rect x="375" y="68" width="8" height="30" rx="3" fill="#92400E"/>
  <ellipse cx="379" cy="65" rx="16" ry="18" fill="#22C55E"/>
  <rect x="400" y="72" width="8" height="25" rx="3" fill="#78350F"/>
  <ellipse cx="404" cy="69" rx="14" ry="16" fill="#16A34A"/>
  <rect x="422" y="70" width="7" height="27" rx="3" fill="#92400E"/>
  <ellipse cx="425" cy="67" rx="13" ry="15" fill="#22C55E"/>
  <!-- Path in forest -->
  <path d="M 363 110 Q 380 95 405 100 Q 430 105 451 110" fill="#D97706" opacity="0.5"/>
  <!-- Caption 4 -->
  <rect x="363" y="114" width="88" height="5" rx="2.5" fill="#D1D5DB"/>
  <rect x="373" y="122" width="65" height="4" rx="2" fill="#E5E7EB"/>
  <!-- Photo 5 (food/travel) - rotated slightly -->
  <g transform="rotate(5 420 175)">
    <rect x="363" y="138" width="80" height="65" rx="4" fill="#FEF3C7"/>
    <rect x="363" y="138" width="80" height="65" rx="4" fill="none" stroke="#FCD34D" stroke-width="1.5"/>
    <!-- Table with food in photo -->
    <ellipse cx="403" cy="185" rx="30" ry="10" fill="#D97706" opacity="0.5"/>
    <!-- Plate -->
    <circle cx="403" cy="182" r="18" fill="white"/>
    <circle cx="403" cy="182" r="15" fill="#F3F4F6"/>
    <!-- Food on plate (pasta) -->
    <ellipse cx="403" cy="182" rx="11" ry="8" fill="#FCD34D"/>
    <!-- Fork & knife -->
    <line x1="385" y1="168" x2="385" y2="196" stroke="#9CA3AF" stroke-width="2"/>
    <line x1="421" y1="168" x2="421" y2="196" stroke="#9CA3AF" stroke-width="2"/>
    <!-- Caption -->
    <rect x="368" y="148" width="70" height="5" rx="2.5" fill="#D1D5DB"/>
  </g>
  <!-- Photo 6 (landmark) small -->
  <rect x="458" y="45" width="96" height="70" rx="4" fill="#FCE7F3"/>
  <rect x="458" y="45" width="96" height="70" rx="4" fill="none" stroke="#F9A8D4" stroke-width="1.5"/>
  <!-- Eiffel tower silhouette -->
  <polygon points="506,52 490,112 522,112" fill="#EC4899" opacity="0.6"/>
  <polygon points="506,52 498,80 514,80" fill="#EC4899" opacity="0.8"/>
  <!-- Tower details -->
  <line x1="494" y1="80" x2="518" y2="80" stroke="#EC4899" stroke-width="2"/>
  <line x1="490" y1="100" x2="522" y2="100" stroke="#EC4899" stroke-width="2" opacity="0.8"/>
  <!-- Caption 6 -->
  <rect x="458" y="118" width="96" height="5" rx="2.5" fill="#D1D5DB"/>
  <!-- Corner decorations on right page -->
  <path d="M 458 138 L 458 155 L 470 138 Z" fill="#FCD34D" opacity="0.4"/>
  <path d="M 553 138 L 553 155 L 541 138 Z" fill="#FCD34D" opacity="0.4"/>
  <path d="M 458 208 L 458 193 L 470 208 Z" fill="#FCD34D" opacity="0.4"/>
  <path d="M 553 208 L 553 193 L 541 208 Z" fill="#FCD34D" opacity="0.4"/>
  <!-- Globe on right -->
  <circle cx="668" cy="115" r="72" fill="#0EA5E9" opacity="0.9"/>
  <circle cx="668" cy="115" r="72" fill="none" stroke="#38BDF8" stroke-width="2"/>
  <!-- Globe continents (simplified) -->
  <path d="M 620 80 Q 640 72 655 85 Q 660 90 658 100 Q 652 110 640 108 Q 628 105 620 95 Z" fill="#22C55E" opacity="0.8"/>
  <path d="M 665 70 Q 678 68 688 78 Q 698 90 695 105 Q 688 118 675 115 Q 662 110 660 98 Q 658 84 665 70 Z" fill="#16A34A" opacity="0.8"/>
  <path d="M 630 115 Q 648 112 660 122 Q 665 130 660 140 Q 650 148 638 145 Q 625 140 622 128 Z" fill="#4ADE80" opacity="0.7"/>
  <path d="M 685 120 Q 700 115 712 128 Q 718 140 710 150 Q 700 158 688 152 Q 678 145 680 132 Z" fill="#22C55E" opacity="0.7"/>
  <!-- Globe grid lines -->
  <ellipse cx="668" cy="115" rx="72" ry="40" fill="none" stroke="rgba(255,255,255,0.3)" stroke-width="1"/>
  <ellipse cx="668" cy="115" rx="72" ry="20" fill="none" stroke="rgba(255,255,255,0.2)" stroke-width="1"/>
  <line x1="668" y1="43" x2="668" y2="187" stroke="rgba(255,255,255,0.2)" stroke-width="1"/>
  <line x1="596" y1="115" x2="740" y2="115" stroke="rgba(255,255,255,0.2)" stroke-width="1"/>
  <!-- Globe outline -->
  <circle cx="668" cy="115" r="72" fill="none" stroke="white" stroke-width="2" opacity="0.6"/>
  <!-- Camera -->
  <rect x="42" y="95" width="90" height="62" rx="10" fill="#374151"/>
  <rect x="47" y="100" width="80" height="52" rx="7" fill="#4B5563"/>
  <!-- Lens -->
  <circle cx="80" cy="126" r="22" fill="#1F2937"/>
  <circle cx="80" cy="126" r="18" fill="#111827"/>
  <circle cx="80" cy="126" r="14" fill="#1E3A5F"/>
  <circle cx="80" cy="126" r="10" fill="#1D4ED8" opacity="0.7"/>
  <ellipse cx="74" cy="120" rx="4" ry="3" fill="white" opacity="0.3"/>
  <!-- Camera flash -->
  <rect x="108" y="104" width="14" height="10" rx="3" fill="#FDE68A"/>
  <!-- Camera top -->
  <rect x="52" y="88" width="56" height="15" rx="5" fill="#374151"/>
  <!-- Shutter -->
  <circle cx="100" cy="95" r="6" fill="#4B5563"/>
  <circle cx="100" cy="95" r="3" fill="#6B7280"/>
  <!-- Scatter photos outside album -->
  <!-- Scattered photo left -->
  <g transform="rotate(-15 60 50)">
    <rect x="22" y="28" width="62" height="48" rx="4" fill="white"/>
    <rect x="26" y="32" width="54" height="38" rx="3" fill="#7DD3FC"/>
    <!-- Beach scene -->
    <rect x="26" y="50" width="54" height="20" rx="2" fill="#FDE68A"/>
    <path d="M 26 50 Q 36 44 46 50 Q 56 56 66 50 Q 74 44 80 50 L 80 50 L 26 50 Z" fill="#0EA5E9"/>
  </g>
  <!-- Scattered photo right bottom -->
  <g transform="rotate(18 720 185)">
    <rect x="688" y="158" width="58" height="48" rx="4" fill="white"/>
    <rect x="692" y="162" width="50" height="38" rx="3" fill="#D1FAE5"/>
    <!-- Forest minimal -->
    <ellipse cx="712" cy="178" rx="14" ry="16" fill="#22C55E"/>
    <ellipse cx="728" cy="180" rx="12" ry="14" fill="#16A34A"/>
    <rect x="709" y="190" width="6" height="10" rx="2" fill="#92400E"/>
    <rect x="724" y="192" width="5" height="8" rx="2" fill="#78350F"/>
  </g>
  <!-- Ticket / sticker on table -->
  <rect x="620" y="38" width="80" height="38" rx="6" fill="#FEF3C7" stroke="#D97706" stroke-width="1.5"/>
  <line x1="642" y1="38" x2="642" y2="76" stroke="#D97706" stroke-width="1" stroke-dasharray="3,2"/>
  <text x="655" y="55" text-anchor="middle" font-size="9" fill="#92400E" font-weight="bold" font-family="sans-serif">BOARDING</text>
  <text x="655" y="66" text-anchor="middle" font-size="8" fill="#B45309" font-family="sans-serif">PASS</text>
  <circle cx="630" cy="57" r="8" fill="#D97706" opacity="0.3"/>
</svg>
