<svg xmlns="http://www.w3.org/2000/svg" viewBox="0 0 100 100" fill="none">
  <!-- Book spine shadow -->
  <path d="M50 18 L50 88" stroke="#8b7355" stroke-width="4"/>
  <!-- Left page -->
  <path d="M10 22 Q30 18 48 20 L48 85 Q30 83 10 87Z" fill="#f5f0e0" stroke="#a0896a" stroke-width="1.5"/>
  <!-- Right page -->
  <path d="M52 20 Q70 18 90 22 L90 87 Q70 83 52 85Z" fill="#faf5e8" stroke="#a0896a" stroke-width="1.5"/>
  <!-- Page lines left -->
  <line x1="18" y1="34" x2="42" y2="32" stroke="#c4b89a" stroke-width="1" opacity="0.6"/>
  <line x1="18" y1="42" x2="42" y2="40" stroke="#c4b89a" stroke-width="1" opacity="0.6"/>
  <line x1="18" y1="50" x2="42" y2="48" stroke="#c4b89a" stroke-width="1" opacity="0.6"/>
  <line x1="18" y1="58" x2="42" y2="56" stroke="#c4b89a" stroke-width="1" opacity="0.6"/>
  <line x1="18" y1="66" x2="42" y2="64" stroke="#c4b89a" stroke-width="1" opacity="0.6"/>
  <!-- Page lines right -->
  <line x1="58" y1="32" x2="82" y2="34" stroke="#c4b89a" stroke-width="1" opacity="0.6"/>
  <line x1="58" y1="40" x2="82" y2="42" stroke="#c4b89a" stroke-width="1" opacity="0.6"/>
  <line x1="58" y1="48" x2="82" y2="50" stroke="#c4b89a" stroke-width="1" opacity="0.6"/>
  <line x1="58" y1="56" x2="82" y2="58" stroke="#c4b89a" stroke-width="1" opacity="0.6"/>
  <!-- Quill feather -->
  <path d="M72 10 Q78 20 76 35 Q74 45 70 55 L68 50 Q72 40 73 30 Q74 22 72 10Z" fill="#c9a84c"/>
  <path d="M72 10 Q66 22 65 35 Q64 45 68 50" fill="none" stroke="#a08030" stroke-width="1"/>
  <!-- Quill tip -->
  <line x1="68" y1="50" x2="65" y2="62" stroke="#8b7355" stroke-width="1.5"/>
  <!-- Quill writing point -->
  <circle cx="65" cy="63" r="1" fill="#8b7355"/>
</svg>
