<svg xmlns="http://www.w3.org/2000/svg" viewBox="0 0 100 100" fill="none">
  <!-- Shield shape -->
  <path d="M50 8 L88 22 L88 52 Q88 78 50 95 Q12 78 12 52 L12 22Z" fill="url(#shieldGrad)" stroke="#c9a84c" stroke-width="3"/>
  <defs>
    <linearGradient id="shieldGrad" x1="0" y1="0" x2="1" y2="1">
      <stop offset="0%" stop-color="#4a7ab5"/>
      <stop offset="100%" stop-color="#2c4a7c"/>
    </linearGradient>
  </defs>
  <!-- Inner shield highlight -->
  <path d="M50 14 L82 26 L82 52 Q82 74 50 89 Q18 74 18 52 L18 26Z" fill="none" stroke="#6a9ad5" stroke-width="1" opacity="0.5"/>
  <!-- Left person (smaller, blue) -->
  <circle cx="38" cy="38" r="8" fill="#6a9ad5"/>
  <path d="M24 68 Q24 52 38 52 Q52 52 52 68" fill="#6a9ad5"/>
  <!-- Right person (larger, gold) -->
  <circle cx="58" cy="35" r="9" fill="#c9a84c"/>
  <path d="M42 70 Q42 52 58 52 Q74 52 74 70" fill="#c9a84c"/>
</svg>
