<svg xmlns="http://www.w3.org/2000/svg" viewBox="0 0 100 100" fill="none">
  <!-- Gold circle border -->
  <circle cx="50" cy="50" r="46" stroke="#c9a84c" stroke-width="3" fill="none"/>
  <!-- Background sky hint -->
  <path d="M50 4C25.2 4 5 24 5 49c0 0 0-20 45-20s45 20 45 20C95 24 74.8 4 50 4z" fill="#e8f0f8" opacity="0.3"/>
  <!-- Back mountain (darker) -->
  <path d="M12 75 L35 30 L58 75Z" fill="#1a2a4a"/>
  <!-- Snow cap back mountain -->
  <path d="M35 30 L29 42 L35 38 L41 42Z" fill="#ffffff"/>
  <!-- Front mountain (medium blue) -->
  <path d="M38 75 L62 25 L88 75Z" fill="#2c4a7c"/>
  <!-- Snow cap front mountain -->
  <path d="M62 25 L55 40 L62 35 L69 40Z" fill="#ffffff"/>
  <!-- Small mountain left -->
  <path d="M4 75 L20 50 L36 75Z" fill="#3a5a8a" opacity="0.7"/>
  <!-- Winding golden path -->
  <path d="M50 75 Q55 65 48 58 Q40 50 52 42 Q58 38 55 32" stroke="#c9a84c" stroke-width="3.5" fill="none" stroke-linecap="round"/>
  <!-- Star sparkle at top -->
  <path d="M72 18 L73.5 14 L75 18 L79 19.5 L75 21 L73.5 25 L72 21 L68 19.5Z" fill="#c9a84c"/>
  <!-- Ground line -->
  <path d="M8 75 Q30 78 50 75 Q70 72 92 75" stroke="#c9a84c" stroke-width="2" fill="none"/>
</svg>
