<svg xmlns="http://www.w3.org/2000/svg" viewBox="0 0 48 48">
  <defs>
    <linearGradient id="bg" x1="0" y1="0" x2="0" y2="1">
      <stop offset="0%" stop-color="#1e1b3a"/>
      <stop offset="100%" stop-color="#110e26"/>
    </linearGradient>
    <linearGradient id="heart" x1="0.3" y1="0" x2="0.7" y2="1">
      <stop offset="0%" stop-color="#f72585"/>
      <stop offset="100%" stop-color="#7b2d8b"/>
    </linearGradient>
  </defs>

  <!-- Full-bleed background (iOS applies its own rounding) -->
  <rect width="48" height="48" rx="11" fill="url(#bg)"/>

  <!--
    Heart content spans x≈2–46 (w=44), y≈2–41 (h=39) in the 48×44 coordinate space.
    Scale 0.84 → content 36.96 × 32.76
    Center in 48×48:
      tx = (48 − 36.96)/2 − 2×0.84 = 5.52 − 1.68 = 3.84
      ty = (48 − 32.76)/2 − 2×0.84 = 7.62 − 1.68 = 5.94
  -->
  <g transform="translate(3.84, 5.94) scale(0.84)">

    <!-- Heart -->
    <path
      d="M24 41C24 41 2 27 2 13.5A11.5 11.5 0 0 1 24 6.1 11.5 11.5 0 0 1 46 13.5C46 27 24 41 24 41Z"
      fill="url(#heart)"
    />

    <!-- Sparkles -->
    <path d="M34,8 L34.55,9.45 L36,10 L34.55,10.55 L34,12 L33.45,10.55 L32,10 L33.45,9.45 Z" fill="white"/>
    <path d="M13,11 L13.4,12.1 L14.5,12.5 L13.4,12.9 L13,14 L12.6,12.9 L11.5,12.5 L12.6,12.1 Z" fill="white" opacity="0.85"/>
    <path d="M30,7 L30.25,7.75 L31,8 L30.25,8.25 L30,9 L29.75,8.25 L29,8 L29.75,7.75 Z" fill="white" opacity="0.7"/>

    <!-- Head -->
    <circle cx="24" cy="14.5" r="3" fill="white"/>

    <!-- Body connector -->
    <path d="M21.5,17.5 C21.5,19.5 22.5,21.5 24,22 C25.5,21.5 26.5,19.5 26.5,17.5 Z" fill="white"/>

    <!-- Book – left page -->
    <path d="M24,22 C22,21.5 15,22 11,26 L11,30 C15,31 21,31.5 24,32 Z" fill="white"/>
    <!-- Book – right page -->
    <path d="M24,22 C26,21.5 33,22 37,26 L37,30 C33,31 27,31.5 24,32 Z" fill="white"/>
    <!-- Spine -->
    <line x1="24" y1="22" x2="24" y2="32" stroke="rgba(0,0,0,0.12)" stroke-width="0.6"/>
  </g>
</svg>
