<svg xmlns="http://www.w3.org/2000/svg" viewBox="0 0 64 64" fill="none" aria-hidden="true">
  <defs>
    <linearGradient id="lwRing" x1="0" y1="0" x2="1" y2="1">
      <stop offset="0%" stop-color="#E6C179"/>
      <stop offset="100%" stop-color="#B88A3E"/>
    </linearGradient>
    <linearGradient id="lwMount" x1="0" y1="0" x2="0" y2="1">
      <stop offset="0%" stop-color="#5A7BA8"/>
      <stop offset="100%" stop-color="#2F4A70"/>
    </linearGradient>
    <linearGradient id="lwPath" x1="0" y1="1" x2="0" y2="0">
      <stop offset="0%" stop-color="#E6C179"/>
      <stop offset="100%" stop-color="#B88A3E"/>
    </linearGradient>
  </defs>
  <circle cx="32" cy="32" r="28" fill="none" stroke="url(#lwRing)" stroke-width="2.5"/>
  <path d="M13 44 L24 26 L31 34 L39 20 L51 44 Z" fill="url(#lwMount)"/>
  <path d="M22.5 29 L24 26 L26.5 29 L23.5 32 Z" fill="#F4F6FA"/>
  <path d="M37 23 L39 20 L42 25 L39.5 27 Z" fill="#F4F6FA"/>
  <path d="M18 47 C24 42 28 46 32 42 C36 38 40 44 46 40" stroke="url(#lwPath)" stroke-width="2.6" stroke-linecap="round" fill="none"/>
  <path d="M44 16 L45.2 19 L48.3 19.4 L46 21.6 L46.6 24.7 L44 23.1 L41.4 24.7 L42 21.6 L39.7 19.4 L42.8 19Z" fill="#E6C179"/>
</svg>
