<svg xmlns="http://www.w3.org/2000/svg" viewBox="0 0 64 64" fill="none" aria-hidden="true">
  <defs>
    <linearGradient id="prBust" x1="0" y1="0" x2="1" y2="1">
      <stop offset="0%" stop-color="#F2D78E"/>
      <stop offset="55%" stop-color="#C99933"/>
      <stop offset="100%" stop-color="#8A6A22"/>
    </linearGradient>
    <linearGradient id="prBase" x1="0" y1="0" x2="0" y2="1">
      <stop offset="0%" stop-color="#3A424A"/>
      <stop offset="100%" stop-color="#1A1E24"/>
    </linearGradient>
  </defs>
  <!-- pedestal -->
  <rect x="18" y="50" width="28" height="10" fill="url(#prBase)"/>
  <rect x="16" y="48" width="32" height="3" fill="#2A3038"/>
  <!-- toga/shoulders -->
  <path d="M14 50 C16 40 22 36 28 36 H36 C42 36 48 40 50 50 Z" fill="url(#prBust)"/>
  <path d="M20 48 C24 42 28 42 32 44 C36 42 40 42 44 48" stroke="#8A6A22" stroke-width="0.8" fill="none"/>
  <!-- neck -->
  <path d="M27 34 L27 38 Q32 40 37 38 L37 34 Z" fill="url(#prBust)"/>
  <!-- head -->
  <ellipse cx="32" cy="25" rx="9" ry="11" fill="url(#prBust)"/>
  <!-- hair curls -->
  <path d="M23 22 C23 16 27 12 32 12 C37 12 41 16 41 22 C40 20 38 19 36 20 C35 17 33 17 32 18 C31 17 29 17 28 20 C26 19 24 20 23 22 Z" fill="#8A6A22"/>
  <circle cx="26" cy="20" r="1.5" fill="#C99933"/>
  <circle cx="29" cy="18" r="1.4" fill="#C99933"/>
  <circle cx="33" cy="18" r="1.4" fill="#C99933"/>
  <circle cx="37" cy="20" r="1.5" fill="#C99933"/>
  <!-- beard -->
  <path d="M27 30 C28 34 31 35 32 35 C33 35 36 34 37 30 C36 32 33 33 32 33 C31 33 28 32 27 30 Z" fill="#8A6A22"/>
  <!-- eyes (hint) -->
  <circle cx="28.5" cy="25" r="0.6" fill="#5A4218"/>
  <circle cx="35.5" cy="25" r="0.6" fill="#5A4218"/>
  <!-- marble highlight on base -->
  <path d="M20 52 L44 52" stroke="#52595F" stroke-width="0.6"/>
</svg>
